{
  "accessors": [
    {
      "bufferView": 2,
      "componentType": 5126,
      "count": 5019,
      "max": [
        191.2252960205078,
        244.13233947753906,
        1024.3463134765625
      ],
      "min": [
        -146.37220764160156,
        -404.4933776855469,
        71.60723114013672
      ],
      "type": "VEC3"
    },
    {
      "bufferView": 2,
      "byteOffset": 60228,
      "componentType": 5126,
      "count": 5019,
      "max": [
        0.999580979347229,
        0.9999696016311646,
        0.999805212020874
      ],
      "min": [
        -0.9989046454429626,
        -0.9990497827529907,
        -0.9999553561210632
      ],
      "type": "VEC3"
    },
    {
      "bufferView": 1,
      "componentType": 5126,
      "count": 5019,
      "max": [
        0.9936800003051758,
        0.9977459907531738
      ],
      "min": [
        0.0028810000512748957,
        0.005398999899625778
      ],
      "type": "VEC2"
    },
    {
      "bufferView": 0,
      "componentType": 5125,
      "count": 26034,
      "type": "SCALAR"
    },
    {
      "bufferView": 2,
      "byteOffset": 120456,
      "componentType": 5126,
      "count": 84,
      "max": [
        113.731201171875,
        162.31210327148438,
        687.39501953125
      ],
      "min": [
        -186.91233825683594,
        -88.61959075927734,
        381.73974609375
      ],
      "type": "VEC3"
    },
    {
      "bufferView": 2,
      "byteOffset": 121464,
      "componentType": 5126,
      "count": 84,
      "max": [
        1.0,
        0.992799699306488,
        0.7309893369674683
      ],
      "min": [
        -0.9997995495796204,
        -0.019263653084635735,
        -0.24197746813297272
      ],
      "type": "VEC3"
    },
    {
      "bufferView": 1,
      "byteOffset": 40152,
      "componentType": 5126,
      "count": 84,
      "max": [
        0.6692000031471252,
        0.697176992893219
      ],
      "min": [
        0.5833160281181335,
        0.54407799243927
      ],
      "type": "VEC2"
    },
    {
      "bufferView": 0,
      "byteOffset": 104136,
      "componentType": 5125,
      "count": 336,
      "type": "SCALAR"
    },
    {
      "bufferView": 2,
      "byteOffset": 122472,
      "componentType": 5126,
      "count": 9940,
      "max": [
        467.5017395019531,
        460.7421875,
        1048.855712890625
      ],
      "min": [
        -481.873291015625,
        -506.15667724609375,
        46.40007019042969
      ],
      "type": "VEC3"
    },
    {
      "bufferView": 2,
      "byteOffset": 241752,
      "componentType": 5126,
      "count": 9940,
      "max": [
        0.9998841285705566,
        0.9952852129936218,
        0.8115007281303406
      ],
      "min": [
        -0.997568666934967,
        -0.9997990131378174,
        -0.7143997550010681
      ],
      "type": "VEC3"
    },
    {
      "bufferView": 1,
      "byteOffset": 40824,
      "componentType": 5126,
      "count": 9940,
      "max": [
        1.0000009536743164,
        1.0
      ],
      "min": [
        0.0,
        0.0
      ],
      "type": "VEC2"
    },
    {
      "bufferView": 0,
      "byteOffset": 105480,
      "componentType": 5125,
      "count": 43476,
      "type": "SCALAR"
    },
    {
      "bufferView": 2,
      "byteOffset": 361032,
      "componentType": 5126,
      "count": 4066,
      "max": [
        484.263671875,
        375.5752868652344,
        992.9276733398438
      ],
      "min": [
        -555.0833129882813,
        -492.69171142578125,
        46.40007019042969
      ],
      "type": "VEC3"
    },
    {
      "bufferView": 2,
      "byteOffset": 409824,
      "componentType": 5126,
      "count": 4066,
      "max": [
        0.9984428882598877,
        0.9698491096496582,
        0.6624872088432312
      ],
      "min": [
        -0.9950324296951294,
        -0.9997661113739014,
        -0.7284931540489197
      ],
      "type": "VEC3"
    },
    {
      "bufferView": 1,
      "byteOffset": 120344,
      "componentType": 5126,
      "count": 4066,
      "max": [
        1.0000009536743164,
        1.0
      ],
      "min": [
        0.0,
        0.0
      ],
      "type": "VEC2"
    },
    {
      "bufferView": 0,
      "byteOffset": 279384,
      "componentType": 5125,
      "count": 17736,
      "type": "SCALAR"
    },
    {
      "bufferView": 2,
      "byteOffset": 458616,
      "componentType": 5126,
      "count": 316,
      "max": [
        -5.184061050415039,
        -49.40091323852539,
        953.779541015625
      ],
      "min": [
        -86.7600326538086,
        -72.9952621459961,
        924.422119140625
      ],
      "type": "VEC3"
    },
    {
      "bufferView": 2,
      "byteOffset": 462408,
      "componentType": 5126,
      "count": 316,
      "max": [
        0.9105777740478516,
        0.5215831995010376,
        0.9662071466445923
      ],
      "min": [
        -0.9724358916282654,
        -0.9984362125396729,
        -0.9981325268745422
      ],
      "type": "VEC3"
    },
    {
      "bufferView": 1,
      "byteOffset": 152872,
      "componentType": 5126,
      "count": 316,
      "max": [
        0.0,
        0.0
      ],
      "min": [
        0.0,
        0.0
      ],
      "type": "VEC2"
    },
    {
      "bufferView": 0,
      "byteOffset": 350328,
      "componentType": 5125,
      "count": 816,
      "type": "SCALAR"
    },
    {
      "bufferView": 2,
      "byteOffset": 466200,
      "componentType": 5126,
      "count": 8797,
      "max": [
        404.6440734863281,
        265.36151123046875,
        1045.61083984375
      ],
      "min": [
        -358.2815246582031,
        -332.2287292480469,
        -1.7958669662475586
      ],
      "type": "VEC3"
    },
    {
      "bufferView": 2,
      "byteOffset": 571764,
      "componentType": 5126,
      "count": 8797,
      "max": [
        0.9999499917030334,
        0.9990394711494446,
        1.0
      ],
      "min": [
        -0.9998836517333984,
        -0.999829888343811,
        -0.9995127320289612
      ],
      "type": "VEC3"
    },
    {
      "bufferView": 1,
      "byteOffset": 155400,
      "componentType": 5126,
      "count": 8797,
      "max": [
        0.9622089862823486,
        0.9978269934654236
      ],
      "min": [
        0.0022479998879134655,
        0.038697998970746994
      ],
      "type": "VEC2"
    },
    {
      "bufferView": 0,
      "byteOffset": 353592,
      "componentType": 5125,
      "count": 46488,
      "type": "SCALAR"
    },
    {
      "bufferView": 2,
      "byteOffset": 677328,
      "componentType": 5126,
      "count": 6731,
      "max": [
        191.68731689453125,
        244.50794982910156,
        1041.177978515625
      ],
      "min": [
        -187.39974975585938,
        -404.9364318847656,
        71.62972259521484
      ],
      "type": "VEC3"
    },
    {
      "bufferView": 2,
      "byteOffset": 758100,
      "componentType": 5126,
      "count": 6731,
      "max": [
        0.9998024106025696,
        0.999773383140564,
        0.9995771050453186
      ],
      "min": [
        -0.9996181130409241,
        -0.9999678730964661,
        -0.9997940063476563
      ],
      "type": "VEC3"
    },
    {
      "bufferView": 1,
      "byteOffset": 225776,
      "componentType": 5126,
      "count": 6731,
      "max": [
        0.953764021396637,
        0.9512360095977783
      ],
      "min": [
        0.023746000602841377,
        0.025853000581264496
      ],
      "type": "VEC2"
    },
    {
      "bufferView": 0,
      "byteOffset": 539544,
      "componentType": 5125,
      "count": 33576,
      "type": "SCALAR"
    },
    {
      "bufferView": 2,
      "byteOffset": 838872,
      "componentType": 5126,
      "count": 639,
      "max": [
        120.1297607421875,
        -193.03753662109375,
        824.1704711914063
      ],
      "min": [
        -101.79927825927734,
        -423.30438232421875,
        164.5047607421875
      ],
      "type": "VEC3"
    },
    {
      "bufferView": 2,
      "byteOffset": 846540,
      "componentType": 5126,
      "count": 639,
      "max": [
        0.9914601445198059,
        0.9893838763237,
        0.9984885454177856
      ],
      "min": [
        -0.9885081052780151,
        -0.9862733483314514,
        -0.9964830279350281
      ],
      "type": "VEC3"
    },
    {
      "bufferView": 1,
      "byteOffset": 279624,
      "componentType": 5126,
      "count": 639,
      "max": [
        0.25969401001930237,
        0.9870859980583191
      ],
      "min": [
        0.03127000108361244,
        0.2138029932975769
      ],
      "type": "VEC2"
    },
    {
      "bufferView": 0,
      "byteOffset": 673848,
      "componentType": 5125,
      "count": 3000,
      "type": "SCALAR"
    },
    {
      "bufferView": 2,
      "byteOffset": 854208,
      "componentType": 5126,
      "count": 8724,
      "max": [
        404.1855773925781,
        264.9046936035156,
        960.8238525390625
      ],
      "min": [
        -357.8210144042969,
        -332.282470703125,
        -1.2960050106048584
      ],
      "type": "VEC3"
    },
    {
      "bufferView": 2,
      "byteOffset": 958896,
      "componentType": 5126,
      "count": 8724,
      "max": [
        0.9996160268783569,
        0.9995706677436829,
        0.9993571043014526
      ],
      "min": [
        -0.9999868869781494,
        -0.9990533590316772,
        -1.0
      ],
      "type": "VEC3"
    },
    {
      "bufferView": 1,
      "byteOffset": 284736,
      "componentType": 5126,
      "count": 8724,
      "max": [
        0.9938409924507141,
        0.9978269934654236
      ],
      "min": [
        0.002073999959975481,
        0.008479000069200993
      ],
      "type": "VEC2"
    },
    {
      "bufferView": 0,
      "byteOffset": 685848,
      "componentType": 5125,
      "count": 47184,
      "type": "SCALAR"
    },
    {
      "bufferView": 2,
      "byteOffset": 1063584,
      "componentType": 5126,
      "count": 1896,
      "max": [
        15.042679786682129,
        66.24068450927734,
        1045.1513671875
      ],
      "min": [
        -133.02499389648438,
        -102.64098358154297,
        848.728759765625
      ],
      "type": "VEC3"
    },
    {
      "bufferView": 2,
      "byteOffset": 1086336,
      "componentType": 5126,
      "count": 1896,
      "max": [
        0.9994222521781921,
        0.99957674741745,
        0.9995566606521606
      ],
      "min": [
        -0.9942682385444641,
        -0.9962109923362732,
        -0.9997847676277161
      ],
      "type": "VEC3"
    },
    {
      "bufferView": 1,
      "byteOffset": 354528,
      "componentType": 5126,
      "count": 1896,
      "max": [
        0.9911419749259949,
        0.9971460103988647
      ],
      "min": [
        0.005107999779284,
        0.005127999931573868
      ],
      "type": "VEC2"
    },
    {
      "bufferView": 0,
      "byteOffset": 874584,
      "componentType": 5125,
      "count": 9186,
      "type": "SCALAR"
    },
    {
      "bufferView": 2,
      "byteOffset": 1109088,
      "componentType": 5126,
      "count": 122,
      "max": [
        -9.99409008026123,
        -42.766944885253906,
        940.5399780273438
      ],
      "min": [
        -76.74452209472656,
        -64.88711547851563,
        908.346435546875
      ],
      "type": "VEC3"
    },
    {
      "bufferView": 2,
      "byteOffset": 1110552,
      "componentType": 5126,
      "count": 122,
      "max": [
        0.991546094417572,
        0.7698758840560913,
        0.987952470779419
      ],
      "min": [
        -0.9332332611083984,
        -0.9663074612617493,
        -0.980518102645874
      ],
      "type": "VEC3"
    },
    {
      "bufferView": 1,
      "byteOffset": 369696,
      "componentType": 5126,
      "count": 122,
      "max": [
        0.9967460036277771,
        0.9778059720993042
      ],
      "min": [
        0.012897999957203865,
        0.02434000000357628
      ],
      "type": "VEC2"
    },
    {
      "bufferView": 0,
      "byteOffset": 911328,
      "componentType": 5125,
      "count": 360,
      "type": "SCALAR"
    }
  ],
  "asset": {
    "extras": {
      "author": "Allan Mitsuse (https://sketchfab.com/allanmit)",
      "license": "SKETCHFAB Editorial (https://sketchfab.com/licenses)",
      "source": "https://sketchfab.com/3d-models/alter-saber-fatestay-night-heavens-feel-c5223abd18d346a7833b732ae064058c",
      "title": "Alter Saber - Fate/Stay Night: Heaven's Feel"
    },
    "generator": "Sketchfab-10.78.0",
    "version": "2.0"
  },
  "bufferViews": [
    {
      "buffer": 0,
      "byteLength": 912768,
      "name": "floatBufferViews",
      "target": 34963
    },
    {
      "buffer": 0,
      "byteLength": 370672,
      "byteOffset": 912768,
      "byteStride": 8,
      "name": "floatBufferViews",
      "target": 34962
    },
    {
      "buffer": 0,
      "byteLength": 1112016,
      "byteOffset": 1283440,
      "byteStride": 12,
      "name": "floatBufferViews",
      "target": 34962
    }
  ],
  "buffers": [
    {
      "byteLength": 2395456,
      "uri": "scene.bin"
    }
  ],
  "extensionsUsed": [
    "KHR_materials_unlit"
  ],
  "images": [
    {
      "uri": "textures/Petal_shader_baseColor.png"
    },
    {
      "uri": "textures/Stroke_Shader_baseColor.png"
    },
    {
      "uri": "textures/Sword_Shader_baseColor.png"
    },
    {
      "uri": "textures/UV01_Shader_baseColor.png"
    },
    {
      "uri": "textures/UV02_shader_baseColor.png"
    },
    {
      "uri": "textures/UV03_shader_baseColor.png"
    },
    {
      "uri": "textures/UV04_shader_baseColor.png"
    }
  ],
  "materials": [
    {
      "alphaMode": "BLEND",
      "doubleSided": true,
      "extensions": {
        "KHR_materials_unlit": {}
      },
      "name": "Petal_shader",
      "pbrMetallicRoughness": {
        "baseColorTexture": {
          "index": 0
        },
        "metallicFactor": 0.0
      }
    },
    {
      "extensions": {
        "KHR_materials_unlit": {}
      },
      "name": "Stroke_Shader",
      "pbrMetallicRoughness": {
        "baseColorTexture": {
          "index": 1
        },
        "metallicFactor": 0.0
      }
    },
    {
      "doubleSided": true,
      "extensions": {
        "KHR_materials_unlit": {}
      },
      "name": "Sword_Shader",
      "pbrMetallicRoughness": {
        "baseColorTexture": {
          "index": 2
        },
        "metallicFactor": 0.0
      }
    },
    {
      "doubleSided": true,
      "extensions": {
        "KHR_materials_unlit": {}
      },
      "name": "UV01_Shader",
      "pbrMetallicRoughness": {
        "baseColorTexture": {
          "index": 3
        },
        "metallicFactor": 0.0
      }
    },
    {
      "doubleSided": true,
      "extensions": {
        "KHR_materials_unlit": {}
      },
      "name": "UV02_shader",
      "pbrMetallicRoughness": {
        "baseColorTexture": {
          "index": 4
        },
        "metallicFactor": 0.0
      }
    },
    {
      "doubleSided": true,
      "extensions": {
        "KHR_materials_unlit": {}
      },
      "name": "UV03_shader",
      "pbrMetallicRoughness": {
        "baseColorTexture": {
          "index": 5
        },
        "metallicFactor": 0.0
      }
    },
    {
      "doubleSided": true,
      "extensions": {
        "KHR_materials_unlit": {}
      },
      "name": "UV04_shader",
      "pbrMetallicRoughness": {
        "baseColorTexture": {
          "index": 6
        },
        "metallicFactor": 0.0
      }
    }
  ],
  "meshes": [
    {
      "name": "Object_0",
      "primitives": [
        {
          "attributes": {
            "NORMAL": 1,
            "POSITION": 0,
            "TEXCOORD_0": 2
          },
          "indices": 3,
          "material": 3,
          "mode": 4
        }
      ]
    },
    {
      "name": "Object_1",
      "primitives": [
        {
          "attributes": {
            "NORMAL": 5,
            "POSITION": 4,
            "TEXCOORD_0": 6
          },
          "indices": 7,
          "material": 4,
          "mode": 4
        }
      ]
    },
    {
      "name": "Object_2",
      "primitives": [
        {
          "attributes": {
            "NORMAL": 9,
            "POSITION": 8,
            "TEXCOORD_0": 10
          },
          "indices": 11,
          "material": 0,
          "mode": 4
        }
      ]
    },
    {
      "name": "Object_3",
      "primitives": [
        {
          "attributes": {
            "NORMAL": 13,
            "POSITION": 12,
            "TEXCOORD_0": 14
          },
          "indices": 15,
          "material": 0,
          "mode": 4
        }
      ]
    },
    {
      "name": "Object_4",
      "primitives": [
        {
          "attributes": {
            "NORMAL": 17,
            "POSITION": 16,
            "TEXCOORD_0": 18
          },
          "indices": 19,
          "material": 1,
          "mode": 4
        }
      ]
    },
    {
      "name": "Object_5",
      "primitives": [
        {
          "attributes": {
            "NORMAL": 21,
            "POSITION": 20,
            "TEXCOORD_0": 22
          },
          "indices": 23,
          "material": 1,
          "mode": 4
        }
      ]
    },
    {
      "name": "Object_6",
      "primitives": [
        {
          "attributes": {
            "NORMAL": 25,
            "POSITION": 24,
            "TEXCOORD_0": 26
          },
          "indices": 27,
          "material": 1,
          "mode": 4
        }
      ]
    },
    {
      "name": "Object_7",
      "primitives": [
        {
          "attributes": {
            "NORMAL": 29,
            "POSITION": 28,
            "TEXCOORD_0": 30
          },
          "indices": 31,
          "material": 2,
          "mode": 4
        }
      ]
    },
    {
      "name": "Object_8",
      "primitives": [
        {
          "attributes": {
            "NORMAL": 33,
            "POSITION": 32,
            "TEXCOORD_0": 34
          },
          "indices": 35,
          "material": 4,
          "mode": 4
        }
      ]
    },
    {
      "name": "Object_9",
      "primitives": [
        {
          "attributes": {
            "NORMAL": 37,
            "POSITION": 36,
            "TEXCOORD_0": 38
          },
          "indices": 39,
          "material": 5,
          "mode": 4
        }
      ]
    },
    {
      "name": "Object_10",
      "primitives": [
        {
          "attributes": {
            "NORMAL": 41,
            "POSITION": 40,
            "TEXCOORD_0": 42
          },
          "indices": 43,
          "material": 6,
          "mode": 4
        }
      ]
    }
  ],
  "nodes": [
    {
      "children": [
        1
      ],
      "matrix": [
        1.0,
        0.0,
        0.0,
        0.0,
        0.0,
        2.220446049250313e-16,
        -1.0,
        0.0,
        0.0,
        1.0,
        2.220446049250313e-16,
        0.0,
        0.0,
        0.0,
        0.0,
        1.0
      ],
      "name": "Sketchfab_model"
    },
    {
      "children": [
        2,
        3,
        4,
        5,
        6,
        7,
        8,
        9,
        10,
        11,
        12
      ],
      "name": "AlterSaber.obj.cleaner.materialmerger.gles"
    },
    {
      "mesh": 0,
      "name": "Object_2"
    },
    {
      "mesh": 1,
      "name": "Object_3"
    },
    {
      "mesh": 2,
      "name": "Object_4"
    },
    {
      "mesh": 3,
      "name": "Object_5"
    },
    {
      "mesh": 4,
      "name": "Object_6"
    },
    {
      "mesh": 5,
      "name": "Object_7"
    },
    {
      "mesh": 6,
      "name": "Object_8"
    },
    {
      "mesh": 7,
      "name": "Object_9"
    },
    {
      "mesh": 8,
      "name": "Object_10"
    },
    {
      "mesh": 9,
      "name": "Object_11"
    },
    {
      "mesh": 10,
      "name": "Object_12"
    }
  ],
  "samplers": [
    {
      "magFilter": 9729,
      "minFilter": 9987,
      "wrapS": 10497,
      "wrapT": 10497
    }
  ],
  "scene": 0,
  "scenes": [
    {
      "name": "Sketchfab_Scene",
      "nodes": [
        0
      ]
    }
  ],
  "textures": [
    {
      "sampler": 0,
      "source": 0
    },
    {
      "sampler": 0,
      "source": 1
    },
    {
      "sampler": 0,
      "source": 2
    },
    {
      "sampler": 0,
      "source": 3
    },
    {
      "sampler": 0,
      "source": 4
    },
    {
      "sampler": 0,
      "source": 5
    },
    {
      "sampler": 0,
      "source": 6
    }
  ]
}
